# xmcd
#
# Track frame offsets:
#	183
#	16580
#	29468
#	41160
#	51323
#	64423
#	80743
#	100338
#	110065
#	120025
#	139490
#	156210
#	176785
#	183338
#	207078
#	219798
#	235238
#	247175
#	262183
#	272355
#
# Disc length: 3811 seconds
#
# Revision: 3
# Processed by: cddbd v1.5.1PL0 Copyright (c) Steve Scherf et al.
# Submitted via: audiograbber 1.83.01
#
DISCID=250ee114
DTITLE=Louis Armstrong - Legends
DYEAR=1993
DGENRE=Jazz
TTITLE0=Someday You'll Be Sorry
TTITLE1=Hee-Bee Jee-Bees
TTITLE2=I Can't Give You Anything But Love Baby
TTITLE3=Muskrat Ramble
TTITLE4=Dear Old Southland
TTITLE5=That Lucky Old Sun
TTITLE6=Black and Blue
TTITLE7=Panama
TTITLE8=Royal Garden Blues
TTITLE9=Chinatown My Chinatown
TTITLE10=Swing That Music
TTITLE11=Tiger Rag
TTITLE12=Baby Won't You Please Come Home
TTITLE13=Storyville Blues
TTITLE14=Jeepers Creepers
TTITLE15=Do You Know What It Means To Miss New Orleans
TTITLE16=Brother Bill
TTITLE17=Old Rockin' Chair
TTITLE18=Way Down Yonder in New Orleans
TTITLE19=I'm Not Rough
EXTD=
EXTT0=
EXTT1=
EXTT2=
EXTT3=
EXTT4=
EXTT5=
EXTT6=
EXTT7=
EXTT8=
EXTT9=
EXTT10=
EXTT11=
EXTT12=
EXTT13=
EXTT14=
EXTT15=
EXTT16=
EXTT17=
EXTT18=
EXTT19=
PLAYORDER=
